Coordinates
version=1
nRows=26
nColumns=24
inDegrees=yes

Units are S.I. units (second, meters, Newtons, ...)
Angles are in degrees.

endheader
time	pelvis_tilt	pelvis_list	pelvis_rotation	pelvis_tx	pelvis_ty	pelvis_tz	hip_flexion_r	hip_adduction_r	hip_rotation_r	knee_angle_r	ankle_angle_r	subtalar_angle_r	mtp_angle_r	hip_flexion_l	hip_adduction_l	hip_rotation_l	knee_angle_l	ankle_angle_l	subtalar_angle_l	mtp_angle_l	lumbar_extension	lumbar_bending	lumbar_rotation
      3.06500000	      4.02094447	     10.09083982	     -7.65949772	      0.58486893	      0.97820036	     -0.00758971	     -2.14222635	    -14.07323346	     -1.45816452	    -40.97397230	      2.15486634	     -3.17160085	     30.48554466	     16.21181559	     10.63786392	    -18.65746832	    -11.56098621	     -5.73449539	     -1.64855878	     44.06044075	    -18.49622837	    -13.23330316	     10.62627761
      3.07000000	      4.01059217	     10.23636483	     -7.72978557	      0.58995527	      0.97849560	     -0.00832741	     -1.15202805	    -14.30080733	     -0.99616964	    -42.72367726	      1.18958447	     -3.43258152	     30.65114853	     16.21778872	     10.79827976	    -18.65734421	    -12.06113620	     -5.41915215	     -1.74448055	     43.79183777	    -18.45826156	    -13.41981629	     10.60428518
      3.07500000	      3.93306606	     10.41295934	     -7.69880705	      0.59506652	      0.97865589	     -0.00916974	     -0.11331591	    -14.54707647	     -0.64141415	    -44.43238964	      0.29320214	     -3.64589675	     31.31322164	     16.28855118	     11.00501748	    -18.58709795	    -12.56857575	     -4.99901291	     -1.67085209	     42.76155437	    -18.35662820	    -13.60584264	     10.39151829
      3.08000000	      3.98076692	     10.54673935	     -7.73096428	      0.60016368	      0.97899050	     -0.00992786	      0.78474347	    -14.74314327	     -0.22834059	    -46.04872606	     -0.55219660	     -3.93647568	     31.86094214	     16.18639220	     11.18850263	    -18.57317911	    -13.00548712	     -4.55619066	     -1.63160930	     41.57057889	    -18.38217060	    -13.77098802	     10.30667967
      3.08500000	      4.00005747	     10.68805679	     -7.77948756	      0.60526431	      0.97926641	     -0.01060448	      1.72246617	    -14.92566228	      0.22297099	    -47.62507477	     -1.20905599	     -4.06689301	     31.92666064	     16.09214597	     11.36157980	    -18.69884056	    -13.39103072	     -4.18503109	     -1.48340865	     41.24657534	    -18.36055698	    -13.95044368	     10.22911128
      3.09000000	      3.93376501	     10.80533488	     -7.77435716	      0.61028509	      0.97940405	     -0.01131220	      2.73871212	    -15.04899091	      0.64808185	    -49.15261507	     -1.73408148	     -4.17845097	     32.05630204	     16.09106902	     11.50414790	    -18.78764930	    -13.79639891	     -3.76154598	     -1.29735851	     40.55769861	    -18.25764636	    -14.08310529	     10.08433230
      3.09500000	      3.91798337	     10.91381189	     -7.77589619	      0.61531600	      0.97960322	     -0.01197123	      3.67667503	    -15.15606455	      1.06286528	    -50.59372422	     -2.11548843	     -4.23923322	     32.19694134	     16.01235543	     11.64202995	    -18.94395046	    -14.16944871	     -3.30639162	     -0.98612697	     39.63914375	    -18.20628783	    -14.21488197	      9.93407830
      3.10000000	      3.90052332	     10.98007674	     -7.70399654	      0.62033986	      0.97983203	     -0.01270600	      4.55154806	    -15.20358244	      1.39229513	    -51.92524166	     -2.38419835	     -4.35582928	     32.40807439	     15.91763119	     11.76228737	    -18.97921014	    -14.54630111	     -2.76863727	     -0.67842720	     37.68018938	    -18.16951165	    -14.27703055	      9.67591841
      3.10500000	      3.92275322	     11.02749788	     -7.67802540	      0.62536004	      0.98010355	     -0.01330099	      5.37506059	    -15.22058531	      1.75292171	    -53.18106155	     -2.45494719	     -4.31429017	     32.51736744	     15.76392695	     11.83738915	    -19.19509664	    -14.90062662	     -2.22788639	     -0.15348468	     36.47415851	    -18.16160199	    -14.34151223	      9.48239840
      3.11000000	      3.86513697	     11.04553249	     -7.67236350	      0.63025978	      0.98026003	     -0.01380047	      6.29871717	    -15.15771660	      2.16726634	    -54.38733051	     -2.48449808	     -4.37763295	     32.58178807	     15.70608940	     11.85145299	    -19.46595317	    -15.26683925	     -1.76022982	      0.28547796	     35.58350731	    -18.06408124	    -14.37902784	      9.32690660
      3.11500000	      3.82662423	     11.01815386	     -7.62305039	      0.63517665	      0.98047104	     -0.01430639	      7.13894618	    -15.04656178	      2.49960980	    -55.48538589	     -2.33067439	     -4.31755002	     32.69643245	     15.62062292	     11.81953930	    -19.72522368	    -15.67041970	     -1.15298729	      0.91574244	     34.04216893	    -17.99423412	    -14.35765179	      9.13655588
      3.12000000	      3.78400710	     10.97045155	     -7.64479271	      0.63999629	      0.98066998	     -0.01461093	      8.00386765	    -14.87015360	      2.90934164	    -56.52243417	     -2.12969174	     -4.39108288	     32.78052410	     15.53964184	     11.73258834	    -20.11377119	    -16.05155014	     -0.69737040	      1.47076262	     33.30938903	    -17.90962637	    -14.34350605	      8.99933175
      3.12500000	      3.66982761	     10.92686025	     -7.57385182	      0.64479243	      0.98074357	     -0.01505964	      8.90835242	    -14.71359939	      3.19044226	    -57.49644970	     -1.85639786	     -4.33861461	     32.93461468	     15.56055601	     11.65275729	    -20.39383323	    -16.51836906	     -0.03664810	      2.13511876	     31.52478869	    -17.76229351	    -14.29894890	      8.76597779
      3.13000000	      3.64027995	     10.82080240	     -7.61490051	      0.64954863	      0.98097000	     -0.01521600	      9.71647281	    -14.45001073	      3.55551264	    -58.36639406	     -1.53601609	     -4.45414482	     33.02590443	     15.47424116	     11.47288079	    -20.85637243	    -16.95259625	      0.48087705	      2.79718259	     30.93690722	    -17.68666759	    -14.23773221	      8.70159782
      3.13500000	      3.51016508	     10.71996402	     -7.53215530	      0.65425787	      0.98104209	     -0.01554650	     10.58792139	    -14.20617068	      3.77885600	    -59.17562977	     -1.11555156	     -4.42843183	     33.23011792	     15.52246162	     11.30804452	    -21.12286946	    -17.47828438	      1.23145379	      3.57089453	     28.45095624	    -17.53084804	    -14.13466793	      8.42919242
      3.14000000	      3.35536683	     10.57729172	     -7.52028299	      0.65885112	      0.98106253	     -0.01573219	     11.50471662	    -13.88557560	      4.05448214	    -59.92802826	     -0.64215589	     -4.44164612	     33.37112839	     15.60841553	     11.06716965	    -21.46818954	    -18.00247077	      1.79504942	      4.15821611	     27.31504717	    -17.33467000	    -14.00909528	      8.34272827
      3.14500000	      3.20437675	     10.46391350	     -7.50094988	      0.66346609	      0.98109953	     -0.01586494	     12.40113826	    -13.60146197	      4.28081338	    -60.60255601	     -0.16893453	     -4.49199578	     33.52775831	     15.68660761	     10.85237248	    -21.80523230	    -18.52804686	      2.43117663	      4.82453521	     25.67624115	    -17.14084951	    -13.91775519	      8.14872116
      3.15000000	      3.09879583	     10.33252711	     -7.54306988	      0.66805868	      0.98121311	     -0.01584461	     13.24401034	    -13.28094800	      4.52008481	    -61.18852090	      0.27029020	     -4.71603039	     33.60354811	     15.70014257	     10.60634422	    -22.19827725	    -19.01102268	      2.93821303	      5.42435236	     25.08394968	    -16.98226550	    -13.83251164	      8.04965412
      3.15500000	      2.89708636	     10.18736353	     -7.48037995	      0.67255004	      0.98118145	     -0.01606576	     14.15591871	    -12.98222795	      4.62874895	    -61.71577709	      0.83457304	     -4.64241665	     33.76939059	     15.84421093	     10.37491692	    -22.34240562	    -19.56259620	      3.64486959	      5.93095045	     22.65826722	    -16.75089674	    -13.68497098	      7.88388028
      3.16000000	      2.74428428	     10.09208293	     -7.46307478	      0.67709211	      0.98122270	     -0.01612702	     15.01732606	    -12.73275461	      4.73747828	    -62.16660956	      1.34126079	     -4.73796944	     33.86319287	     15.90409414	     10.19008617	    -22.55446359	    -20.02971544	      4.23779617	      6.47227963	     21.11153863	    -16.55449554	    -13.61639093	      7.65373420
      3.16500000	      2.61680289	      9.98268358	     -7.49828163	      0.68159211	      0.98132872	     -0.01609914	     15.84893210	    -12.45634859	      4.85760071	    -62.53222121	      1.79011127	     -4.94723259	     33.91063555	     15.91408757	      9.99549447	    -22.75939800	    -20.42834467	      4.68319149	      6.85437514	     20.54328148	    -16.37732244	    -13.54980729	      7.53372329
      3.17000000	      2.50641366	      9.88565948	     -7.44978356	      0.68610997	      0.98148411	     -0.01629931	     16.61359244	    -12.25967784	      4.84120648	    -62.80923282	      2.32425237	     -4.90853181	     33.96854965	     15.89009188	      9.87161608	    -22.75840395	    -20.80738676	      5.34267265	      7.22579906	     18.10809307	    -16.23957331	    -13.46184467	      7.30658241
      3.17500000	      2.34199935	      9.81422352	     -7.44537696	      0.69056429	      0.98157104	     -0.01640808	     17.45814940	    -12.05929619	      4.86258507	    -63.03232780	      2.78279664	     -5.01909659	     34.00564801	     15.90429343	      9.76861658	    -22.76824079	    -21.09281133	      5.67140056	      7.35583302	     17.70988625	    -16.02960956	    -13.41254519	      7.14640476
      3.18000000	      2.17246754	      9.77480970	     -7.40066732	      0.69502412	      0.98166052	     -0.01666902	     18.28928725	    -11.93074653	      4.81504650	    -63.18695394	      3.25080571	     -5.03385666	     34.01379860	     15.90278219	      9.74475122	    -22.62938253	    -21.31694893	      6.04019338	      7.36746473	     16.69613786	    -15.82059487	    -13.37675851	      6.94164277
      3.18500000	      2.13669797	      9.75781612	     -7.36679570	      0.69955767	      0.98199861	     -0.01692502	     18.93936149	    -11.85894758	      4.73102488	    -63.23390932	      3.71383585	     -5.05718587	     33.94014368	     15.70130767	      9.78766734	    -22.45809500	    -21.42887911	      6.46418500	      7.49651526	     15.02146962	    -15.75802407	    -13.37811190	      6.71441688
      3.19000000	      2.16257485	      9.73598581	     -7.33390050	      0.70418650	      0.98249507	     -0.01723747	     19.47916747	    -11.81177218	      4.60860939	    -63.17075485	      4.15127251	     -4.99383849	     33.98211099	     15.37250062	      9.86932630	    -22.24366318	    -21.40426649	      6.65762341	      7.42738812	     14.87445541	    -15.75899067	    -13.37192275	      6.48121679
